<?xml version="1.0" encoding="utf-8"?>
<!-- Generator: Adobe Illustrator 21.0.0, SVG Export Plug-In . SVG Version: 6.00 Build 0)  -->
<svg version="1.1" id="Layer_1" xmlns="http://www.w3.org/2000/svg" xmlns:xlink="http://www.w3.org/1999/xlink" x="0px" y="0px" enable-background="new 0 0 1400 980" xml:space="preserve">
<g>
			<g>
				<rect x="693.1" y="356.5" fill="#EBA032" width="13.9" height="439.1"/>
				<rect x="707" y="356.5" fill="#FBB040" width="13.9" height="439.1"/>
				<rect x="720.9" y="356.5" fill="#EBA032" width="13.9" height="439.1"/>
			</g>
			<polygon fill="#FFD297" points="714,308.7 693.1,356.5 734.9,356.5 			"/>
			<path fill="#58595B" d="M714,308.7l-5,11.4l0,0c3.2,1.4,6.8,1.4,10,0l0,0L714,308.7z"/>
			<rect x="693.1" y="795.6" fill="#D1D3D4" width="41.8" height="40.1"/>
			<path fill="#FF88D5" d="M714,867.3L714,867.3c-11.5,0-20.9-9.4-20.9-20.9v-10.7h41.8v10.7C734.9,857.9,725.5,867.3,714,867.3z"/>
			<rect x="693.1" y="826.4" fill="#939598" width="41.8" height="9.3"/>
			<rect x="693.1" y="808.9" fill="#939598" width="41.8" height="9.3"/>
			<rect x="693.1" y="791.5" fill="#939598" width="41.8" height="9.3"/>
			<path fill="#E876C0" d="M714,867.3L714,867.3v-31.6h20.9v10.7C734.9,857.9,725.5,867.3,714,867.3z"/>
		</g>
</svg>