<?xml version="1.0" encoding="utf-8"?>
<!-- Generator: Adobe Illustrator 21.0.0, SVG Export Plug-In . SVG Version: 6.00 Build 0)  -->
<svg version="1.1" id="Layer_1" xmlns="http://www.w3.org/2000/svg" xmlns:xlink="http://www.w3.org/1999/xlink" x="0px" y="0px"
	 width="1400px" height="980px" viewBox="0 0 1400 980" enable-background="new 0 0 1400 980" xml:space="preserve">
<g>
	<rect fill="#D2FFFA" width="1400" height="980"/>
	<g>
		<g>
			<g>
				<path fill="#ACAEB0" d="M405.7,225.9c-28-2.2-52.4,18.7-54.6,46.6l-12.5,158.8c5.3,0.4,10-2.9,11.5-7.8l1.6,0.1
					c2.7,0.2,5.1-1.8,5.3-4.5l1.7-22.1c0.2-2.7-1.8-5.1-4.5-5.3l-1.3-0.1l8.6-109c1.9-24.2,20.5-43.1,43.6-46.3l0.8-10.3
					L405.7,225.9z"/>
				<g>
					<polygon fill="#BCBEC0" points="371.1,745.5 358.8,744.6 347.6,684.8 391.5,688.3 					"/>
					<polygon fill="#3E3E40" points="358.8,744.6 371.1,745.5 363.2,767.8 					"/>
					<polygon fill="#ACAEB0" points="391.5,688.3 369.6,686.6 364.9,745.1 371.1,745.5 					"/>
				</g>
				<path fill="#BCBEC0" d="M409.8,187.6L409.8,187.6c-8-0.6-15,5.4-15.7,13.4l-2.4,30.6l29,2.3l2.4-30.6
					C423.8,195.3,417.8,188.3,409.8,187.6z"/>
				<path fill="#ACAEB0" d="M423.2,203.3c0.6-8-5.4-15-13.4-15.7h0c-0.3,0-0.6,0-0.9,0l-3.6,45l15.4,1.2L423.2,203.3z"/>
				<g>
					<path fill="#2A2A5B" d="M391.5,688.3l-43.9-3.5l29.8-445.6c0.6-8.5,6.6-15,13.5-14.5l30,2.4c6.9,0.5,11.8,7.9,11,16.4
						L391.5,688.3z"/>
					<path fill="#31316B" d="M377.4,239.2l-29.8,445.6l21.9,1.7l36.3-460.6l-15-1.2C384,224.2,378,230.7,377.4,239.2z"/>
					<polygon fill="#FBB040" points="411.7,465.7 362.5,461.8 363.2,452.2 412.6,456.1 					"/>
				</g>
			</g>
			<g>
				
					<rect x="205.1" y="156.4" transform="matrix(0.9832 -0.1825 0.1825 0.9832 -87.2122 56.0925)" fill="#D1D3D4" width="111.9" height="690.8"/>
				
					<rect x="260.6" y="151.3" transform="matrix(0.9832 -0.1825 0.1825 0.9832 -85.8172 61.0283)" fill="#DEDFE0" width="56" height="690.8"/>
				<g>
					<g>
						
							<rect x="224.3" y="167.4" transform="matrix(0.9832 -0.1825 0.1825 0.9832 -26.6592 46.3129)" fill="#999B9C" width="28" height="1.2"/>
						
							<rect x="232.1" y="172.4" transform="matrix(0.9832 -0.1825 0.1825 0.9832 -27.4918 47.1971)" fill="#999B9C" width="21.2" height="1.2"/>
						
							<rect x="233.1" y="177.9" transform="matrix(0.9832 -0.1825 0.1825 0.9832 -28.494 47.4801)" fill="#999B9C" width="21.2" height="1.2"/>
						
							<rect x="234.1" y="183.5" transform="matrix(0.9832 -0.1825 0.1825 0.9832 -29.4963 47.7633)" fill="#999B9C" width="21.2" height="1.2"/>
						
							<rect x="235.2" y="189.1" transform="matrix(0.9832 -0.1825 0.1825 0.9832 -30.4987 48.0467)" fill="#999B9C" width="21.2" height="1.2"/>
						
							<rect x="236.2" y="194.7" transform="matrix(0.9832 -0.1825 0.1825 0.9832 -31.5009 48.3296)" fill="#999B9C" width="21.2" height="1.2"/>
						
							<rect x="237.2" y="200.3" transform="matrix(0.9832 -0.1825 0.1825 0.9832 -32.5032 48.6128)" fill="#999B9C" width="21.2" height="1.2"/>
						
							<rect x="238.3" y="205.9" transform="matrix(0.9832 -0.1825 0.1825 0.9832 -33.5056 48.896)" fill="#999B9C" width="21.2" height="1.2"/>
						
							<rect x="239.3" y="211.5" transform="matrix(0.9832 -0.1825 0.1825 0.9832 -34.508 49.1794)" fill="#999B9C" width="21.2" height="1.2"/>
						
							<rect x="233.6" y="217.7" transform="matrix(0.9832 -0.1825 0.1825 0.9832 -35.68 48.8616)" fill="#999B9C" width="28" height="1.2"/>
					</g>
					<g>
						
							<rect x="233.6" y="217.7" transform="matrix(0.9832 -0.1825 0.1825 0.9832 -35.68 48.8616)" fill="#999B9C" width="28" height="1.2"/>
						
							<rect x="241.4" y="222.6" transform="matrix(0.9832 -0.1825 0.1825 0.9832 -36.5125 49.7456)" fill="#999B9C" width="21.2" height="1.2"/>
						
							<rect x="242.4" y="228.2" transform="matrix(0.9832 -0.1825 0.1825 0.9832 -37.5158 50.0304)" fill="#999B9C" width="21.2" height="1.2"/>
						
							<rect x="243.5" y="233.8" transform="matrix(0.9832 -0.1825 0.1825 0.9832 -38.5179 50.3133)" fill="#999B9C" width="21.2" height="1.2"/>
						
							<rect x="244.5" y="239.4" transform="matrix(0.9832 -0.1825 0.1825 0.9832 -39.5204 50.5967)" fill="#999B9C" width="21.2" height="1.2"/>
						
							<rect x="245.5" y="245" transform="matrix(0.9832 -0.1825 0.1825 0.9832 -40.5226 50.8797)" fill="#999B9C" width="21.2" height="1.2"/>
						
							<rect x="246.6" y="250.6" transform="matrix(0.9832 -0.1825 0.1825 0.9832 -41.524 51.1615)" fill="#999B9C" width="21.2" height="1.2"/>
						
							<rect x="247.6" y="256.2" transform="matrix(0.9832 -0.1825 0.1825 0.9832 -42.5264 51.4449)" fill="#999B9C" width="21.2" height="1.2"/>
						
							<rect x="248.6" y="261.7" transform="matrix(0.9832 -0.1825 0.1825 0.9832 -43.5286 51.7279)" fill="#999B9C" width="21.2" height="1.2"/>
						
							<rect x="242.9" y="267.9" transform="matrix(0.9832 -0.1825 0.1825 0.9832 -44.7007 51.4103)" fill="#999B9C" width="28" height="1.2"/>
					</g>
					<g>
						
							<rect x="242.9" y="267.9" transform="matrix(0.9832 -0.1825 0.1825 0.9832 -44.7007 51.4103)" fill="#999B9C" width="28" height="1.2"/>
						
							<rect x="250.7" y="272.9" transform="matrix(0.9832 -0.1825 0.1825 0.9832 -45.5334 52.2945)" fill="#999B9C" width="21.2" height="1.2"/>
						
							<rect x="251.8" y="278.5" transform="matrix(0.9832 -0.1825 0.1825 0.9832 -46.5355 52.5774)" fill="#999B9C" width="21.2" height="1.2"/>
						
							<rect x="252.8" y="284.1" transform="matrix(0.9832 -0.1825 0.1825 0.9832 -47.5378 52.8606)" fill="#999B9C" width="21.2" height="1.2"/>
						
							<rect x="253.8" y="289.7" transform="matrix(0.9832 -0.1825 0.1825 0.9832 -48.5401 53.1437)" fill="#999B9C" width="21.2" height="1.2"/>
						
							<rect x="254.9" y="295.3" transform="matrix(0.9832 -0.1825 0.1825 0.9832 -49.5424 53.427)" fill="#999B9C" width="21.2" height="1.2"/>
						
							<rect x="255.9" y="300.8" transform="matrix(0.9832 -0.1825 0.1825 0.9832 -50.5449 53.7104)" fill="#999B9C" width="21.2" height="1.2"/>
						
							<rect x="256.9" y="306.4" transform="matrix(0.9832 -0.1825 0.1825 0.9832 -51.547 53.9933)" fill="#999B9C" width="21.2" height="1.2"/>
						
							<rect x="258" y="312" transform="matrix(0.9832 -0.1825 0.1825 0.9832 -52.5493 54.2765)" fill="#999B9C" width="21.2" height="1.2"/>
						
							<rect x="252.3" y="318.2" transform="matrix(0.9832 -0.1825 0.1825 0.9832 -53.7226 53.9603)" fill="#999B9C" width="28" height="1.2"/>
					</g>
					<g>
						
							<rect x="252.3" y="318.2" transform="matrix(0.9832 -0.1825 0.1825 0.9832 -53.7226 53.9603)" fill="#999B9C" width="28" height="1.2"/>
						
							<rect x="260.1" y="323.2" transform="matrix(0.9832 -0.1825 0.1825 0.9832 -54.5551 54.8444)" fill="#999B9C" width="21.2" height="1.2"/>
						
							<rect x="261.1" y="328.8" transform="matrix(0.9832 -0.1825 0.1825 0.9832 -55.5575 55.1276)" fill="#999B9C" width="21.2" height="1.2"/>
						
							<rect x="262.1" y="334.4" transform="matrix(0.9832 -0.1825 0.1825 0.9832 -56.5601 55.4111)" fill="#999B9C" width="21.2" height="1.2"/>
						
							<rect x="263.2" y="339.9" transform="matrix(0.9832 -0.1825 0.1825 0.9832 -57.5608 55.6924)" fill="#999B9C" width="21.2" height="1.2"/>
						
							<rect x="264.2" y="345.5" transform="matrix(0.9832 -0.1825 0.1825 0.9832 -58.5634 55.9759)" fill="#999B9C" width="21.2" height="1.2"/>
						
							<rect x="265.2" y="351.1" transform="matrix(0.9832 -0.1825 0.1825 0.9832 -59.5654 56.2588)" fill="#999B9C" width="21.2" height="1.2"/>
						
							<rect x="266.3" y="356.7" transform="matrix(0.9832 -0.1825 0.1825 0.9832 -60.5677 56.542)" fill="#999B9C" width="21.2" height="1.2"/>
						
							<rect x="267.3" y="362.3" transform="matrix(0.9832 -0.1825 0.1825 0.9832 -61.5703 56.8255)" fill="#999B9C" width="21.2" height="1.2"/>
						
							<rect x="261.6" y="368.5" transform="matrix(0.9832 -0.1825 0.1825 0.9832 -62.7422 56.5076)" fill="#999B9C" width="28" height="1.2"/>
					</g>
					<g>
						
							<rect x="261.6" y="368.5" transform="matrix(0.9832 -0.1825 0.1825 0.9832 -62.7422 56.5076)" fill="#999B9C" width="28" height="1.2"/>
						
							<rect x="269.4" y="373.5" transform="matrix(0.9832 -0.1825 0.1825 0.9832 -63.5746 57.3915)" fill="#999B9C" width="21.2" height="1.2"/>
						
							<rect x="270.4" y="379" transform="matrix(0.9832 -0.1825 0.1825 0.9832 -64.5772 57.675)" fill="#999B9C" width="21.2" height="1.2"/>
						
							<rect x="271.5" y="384.6" transform="matrix(0.9832 -0.1825 0.1825 0.9832 -65.5792 57.9579)" fill="#999B9C" width="21.2" height="1.2"/>
						
							<rect x="272.5" y="390.2" transform="matrix(0.9832 -0.1825 0.1825 0.9832 -66.5818 58.2414)" fill="#999B9C" width="21.2" height="1.2"/>
						
							<rect x="273.5" y="395.8" transform="matrix(0.9832 -0.1825 0.1825 0.9832 -67.5838 58.5243)" fill="#999B9C" width="21.2" height="1.2"/>
						
							<rect x="274.6" y="401.4" transform="matrix(0.9832 -0.1825 0.1825 0.9832 -68.5878 58.8091)" fill="#999B9C" width="21.2" height="1.2"/>
						
							<rect x="275.6" y="407" transform="matrix(0.9832 -0.1825 0.1825 0.9832 -69.5904 59.0926)" fill="#999B9C" width="21.2" height="1.2"/>
						
							<rect x="276.7" y="412.6" transform="matrix(0.9832 -0.1825 0.1825 0.9832 -70.5924 59.3755)" fill="#999B9C" width="21.2" height="1.2"/>
						
							<rect x="270.9" y="418.8" transform="matrix(0.9832 -0.1825 0.1825 0.9832 -71.7642 59.0575)" fill="#999B9C" width="28" height="1.2"/>
					</g>
					<g>
						
							<rect x="270.9" y="418.8" transform="matrix(0.9832 -0.1825 0.1825 0.9832 -71.7642 59.0575)" fill="#999B9C" width="28" height="1.2"/>
						
							<rect x="278.7" y="423.7" transform="matrix(0.9832 -0.1825 0.1825 0.9832 -72.5957 59.9405)" fill="#999B9C" width="21.2" height="1.2"/>
						
							<rect x="279.8" y="429.3" transform="matrix(0.9832 -0.1825 0.1825 0.9832 -73.5977 60.2234)" fill="#999B9C" width="21.2" height="1.2"/>
						
							<rect x="280.8" y="434.9" transform="matrix(0.9832 -0.1825 0.1825 0.9832 -74.6003 60.5069)" fill="#999B9C" width="21.2" height="1.2"/>
						
							<rect x="281.8" y="440.5" transform="matrix(0.9832 -0.1825 0.1825 0.9832 -75.6023 60.7897)" fill="#999B9C" width="21.2" height="1.2"/>
						
							<rect x="282.9" y="446.1" transform="matrix(0.9832 -0.1825 0.1825 0.9832 -76.6046 61.0729)" fill="#999B9C" width="21.2" height="1.2"/>
						
							<rect x="283.9" y="451.7" transform="matrix(0.9832 -0.1825 0.1825 0.9832 -77.6072 61.3564)" fill="#999B9C" width="21.2" height="1.2"/>
						
							<rect x="284.9" y="457.3" transform="matrix(0.9832 -0.1825 0.1825 0.9832 -78.6092 61.6393)" fill="#999B9C" width="21.2" height="1.2"/>
						
							<rect x="286" y="462.8" transform="matrix(0.9832 -0.1825 0.1825 0.9832 -79.6115 61.9225)" fill="#999B9C" width="21.2" height="1.2"/>
						
							<rect x="280.3" y="469.1" transform="matrix(0.9832 -0.1825 0.1825 0.9832 -80.784 61.6052)" fill="#999B9C" width="28" height="1.2"/>
					</g>
					<g>
						
							<rect x="280.3" y="469.1" transform="matrix(0.9832 -0.1825 0.1825 0.9832 -80.784 61.6052)" fill="#999B9C" width="28" height="1.2"/>
						
							<rect x="288.1" y="474" transform="matrix(0.9832 -0.1825 0.1825 0.9832 -81.6161 62.4888)" fill="#999B9C" width="21.2" height="1.2"/>
						
							<rect x="289.1" y="479.6" transform="matrix(0.9832 -0.1825 0.1825 0.9832 -82.6184 62.772)" fill="#999B9C" width="21.2" height="1.2"/>
						
							<rect x="290.1" y="485.2" transform="matrix(0.9832 -0.1825 0.1825 0.9832 -83.6207 63.0552)" fill="#999B9C" width="21.2" height="1.2"/>
						
							<rect x="291.2" y="490.8" transform="matrix(0.9832 -0.1825 0.1825 0.9832 -84.625 63.3402)" fill="#999B9C" width="21.2" height="1.2"/>
						
							<rect x="292.2" y="496.4" transform="matrix(0.9832 -0.1825 0.1825 0.9832 -85.6276 63.6237)" fill="#999B9C" width="21.2" height="1.2"/>
						
							<rect x="293.2" y="501.9" transform="matrix(0.9832 -0.1825 0.1825 0.9832 -86.6296 63.9066)" fill="#999B9C" width="21.2" height="1.2"/>
						
							<rect x="294.3" y="507.5" transform="matrix(0.9832 -0.1825 0.1825 0.9832 -87.6319 64.1898)" fill="#999B9C" width="21.2" height="1.2"/>
						
							<rect x="295.3" y="513.1" transform="matrix(0.9832 -0.1825 0.1825 0.9832 -88.6326 64.4715)" fill="#999B9C" width="21.2" height="1.2"/>
						
							<rect x="289.6" y="519.3" transform="matrix(0.9832 -0.1825 0.1825 0.9832 -89.8045 64.1536)" fill="#999B9C" width="28" height="1.2"/>
					</g>
					<g>
						
							<rect x="289.6" y="519.3" transform="matrix(0.9832 -0.1825 0.1825 0.9832 -89.8045 64.1536)" fill="#999B9C" width="28" height="1.2"/>
						
							<rect x="297.4" y="524.3" transform="matrix(0.9832 -0.1825 0.1825 0.9832 -90.6368 65.0375)" fill="#999B9C" width="21.2" height="1.2"/>
						
							<rect x="298.4" y="529.9" transform="matrix(0.9832 -0.1825 0.1825 0.9832 -91.6395 65.321)" fill="#999B9C" width="21.2" height="1.2"/>
						
							<rect x="299.5" y="535.5" transform="matrix(0.9832 -0.1825 0.1825 0.9832 -92.6414 65.6039)" fill="#999B9C" width="21.2" height="1.2"/>
						
							<rect x="300.5" y="541.1" transform="matrix(0.9832 -0.1825 0.1825 0.9832 -93.6441 65.8874)" fill="#999B9C" width="21.2" height="1.2"/>
						
							<rect x="301.5" y="546.6" transform="matrix(0.9832 -0.1825 0.1825 0.9832 -94.646 66.1702)" fill="#999B9C" width="21.2" height="1.2"/>
						
							<rect x="302.6" y="552.2" transform="matrix(0.9832 -0.1825 0.1825 0.9832 -95.6483 66.4534)" fill="#999B9C" width="21.2" height="1.2"/>
						
							<rect x="303.6" y="557.8" transform="matrix(0.9832 -0.1825 0.1825 0.9832 -96.651 66.737)" fill="#999B9C" width="21.2" height="1.2"/>
						
							<rect x="304.7" y="563.4" transform="matrix(0.9832 -0.1825 0.1825 0.9832 -97.6529 67.0198)" fill="#999B9C" width="21.2" height="1.2"/>
						
							<rect x="298.9" y="569.6" transform="matrix(0.9832 -0.1825 0.1825 0.9832 -98.8252 66.7022)" fill="#999B9C" width="28" height="1.2"/>
					</g>
					<g>
						
							<rect x="298.9" y="569.6" transform="matrix(0.9832 -0.1825 0.1825 0.9832 -98.8252 66.7022)" fill="#999B9C" width="28" height="1.2"/>
						
							<rect x="306.7" y="574.6" transform="matrix(0.9832 -0.1825 0.1825 0.9832 -99.6603 67.5884)" fill="#999B9C" width="21.2" height="1.2"/>
						
							<rect x="307.8" y="580.2" transform="matrix(0.9832 -0.1825 0.1825 0.9832 -100.6603 67.8697)" fill="#999B9C" width="21.2" height="1.2"/>
						
							<rect x="308.8" y="585.7" transform="matrix(0.9832 -0.1825 0.1825 0.9832 -101.665 68.1548)" fill="#999B9C" width="21.2" height="1.2"/>
						
							<rect x="309.8" y="591.3" transform="matrix(0.9832 -0.1825 0.1825 0.9832 -102.6669 68.4377)" fill="#999B9C" width="21.2" height="1.2"/>
						
							<rect x="310.9" y="596.9" transform="matrix(0.9832 -0.1825 0.1825 0.9832 -103.6667 68.7189)" fill="#999B9C" width="21.2" height="1.2"/>
						
							<rect x="311.9" y="602.5" transform="matrix(0.9832 -0.1825 0.1825 0.9832 -104.6716 69.0041)" fill="#999B9C" width="21.2" height="1.2"/>
						
							<rect x="313" y="608.1" transform="matrix(0.9832 -0.1825 0.1825 0.9832 -105.6714 69.2853)" fill="#999B9C" width="21.2" height="1.2"/>
						
							<rect x="314" y="613.7" transform="matrix(0.9832 -0.1825 0.1825 0.9832 -106.6737 69.5685)" fill="#999B9C" width="21.2" height="1.2"/>
						
							<rect x="308.3" y="619.9" transform="matrix(0.9832 -0.1825 0.1825 0.9832 -107.8463 69.2512)" fill="#999B9C" width="28" height="1.2"/>
					</g>
					<g>
						
							<rect x="308.3" y="619.9" transform="matrix(0.9832 -0.1825 0.1825 0.9832 -107.8463 69.2512)" fill="#999B9C" width="28" height="1.2"/>
						
							<rect x="316.1" y="624.8" transform="matrix(0.9832 -0.1825 0.1825 0.9832 -108.6788 70.1352)" fill="#999B9C" width="21.2" height="1.2"/>
						
							<rect x="317.1" y="630.4" transform="matrix(0.9832 -0.1825 0.1825 0.9832 -109.6805 70.418)" fill="#999B9C" width="21.2" height="1.2"/>
						
							<rect x="318.1" y="636" transform="matrix(0.9832 -0.1825 0.1825 0.9832 -110.6829 70.7012)" fill="#999B9C" width="21.2" height="1.2"/>
						
							<rect x="319.2" y="641.6" transform="matrix(0.9832 -0.1825 0.1825 0.9832 -111.6852 70.9844)" fill="#999B9C" width="21.2" height="1.2"/>
						
							<rect x="320.2" y="647.2" transform="matrix(0.9832 -0.1825 0.1825 0.9832 -112.6875 71.2676)" fill="#999B9C" width="21.2" height="1.2"/>
						
							<rect x="321.2" y="652.8" transform="matrix(0.9832 -0.1825 0.1825 0.9832 -113.6897 71.5507)" fill="#999B9C" width="21.2" height="1.2"/>
						
							<rect x="322.3" y="658.4" transform="matrix(0.9832 -0.1825 0.1825 0.9832 -114.6926 71.8343)" fill="#999B9C" width="21.2" height="1.2"/>
						
							<rect x="323.3" y="664" transform="matrix(0.9832 -0.1825 0.1825 0.9832 -115.6976 72.1196)" fill="#999B9C" width="21.2" height="1.2"/>
						
							<rect x="317.6" y="670.2" transform="matrix(0.9832 -0.1825 0.1825 0.9832 -116.8671 71.7999)" fill="#999B9C" width="28" height="1.2"/>
					</g>
					<g>
						
							<rect x="317.6" y="670.2" transform="matrix(0.9832 -0.1825 0.1825 0.9832 -116.8671 71.7999)" fill="#999B9C" width="28" height="1.2"/>
						
							<rect x="325.4" y="675.1" transform="matrix(0.9832 -0.1825 0.1825 0.9832 -117.7018 72.6856)" fill="#999B9C" width="21.2" height="1.2"/>
						
							<rect x="326.4" y="680.7" transform="matrix(0.9832 -0.1825 0.1825 0.9832 -118.7041 72.9688)" fill="#999B9C" width="21.2" height="1.2"/>
						
							<rect x="327.5" y="686.3" transform="matrix(0.9832 -0.1825 0.1825 0.9832 -119.7036 73.2498)" fill="#999B9C" width="21.2" height="1.2"/>
						
							<rect x="328.5" y="691.9" transform="matrix(0.9832 -0.1825 0.1825 0.9832 -120.7088 73.5352)" fill="#999B9C" width="21.2" height="1.2"/>
						
							<rect x="329.5" y="697.5" transform="matrix(0.9832 -0.1825 0.1825 0.9832 -121.7082 73.8162)" fill="#999B9C" width="21.2" height="1.2"/>
						
							<rect x="330.6" y="703.1" transform="matrix(0.9832 -0.1825 0.1825 0.9832 -122.7111 74.0998)" fill="#999B9C" width="21.2" height="1.2"/>
						
							<rect x="331.6" y="708.6" transform="matrix(0.9832 -0.1825 0.1825 0.9832 -123.7134 74.383)" fill="#999B9C" width="21.2" height="1.2"/>
						
							<rect x="332.7" y="714.2" transform="matrix(0.9832 -0.1825 0.1825 0.9832 -124.7157 74.6662)" fill="#999B9C" width="21.2" height="1.2"/>
						
							<rect x="326.9" y="720.4" transform="matrix(0.9832 -0.1825 0.1825 0.9832 -125.8874 74.3482)" fill="#999B9C" width="28" height="1.2"/>
					</g>
					<g>
						
							<rect x="326.9" y="720.4" transform="matrix(0.9832 -0.1825 0.1825 0.9832 -125.8874 74.3482)" fill="#999B9C" width="28" height="1.2"/>
						
							<rect x="334.7" y="725.4" transform="matrix(0.9832 -0.1825 0.1825 0.9832 -126.7197 75.2321)" fill="#999B9C" width="21.2" height="1.2"/>
						
							<rect x="335.8" y="731" transform="matrix(0.9832 -0.1825 0.1825 0.9832 -127.722 75.5153)" fill="#999B9C" width="21.2" height="1.2"/>
						
							<rect x="336.8" y="736.6" transform="matrix(0.9832 -0.1825 0.1825 0.9832 -128.7243 75.7985)" fill="#999B9C" width="21.2" height="1.2"/>
						
							<rect x="337.8" y="742.2" transform="matrix(0.9832 -0.1825 0.1825 0.9832 -129.7266 76.0817)" fill="#999B9C" width="21.2" height="1.2"/>
						
							<rect x="338.9" y="747.7" transform="matrix(0.9832 -0.1825 0.1825 0.9832 -130.7295 76.3653)" fill="#999B9C" width="21.2" height="1.2"/>
						
							<rect x="339.9" y="753.3" transform="matrix(0.9832 -0.1825 0.1825 0.9832 -131.7349 76.6507)" fill="#999B9C" width="21.2" height="1.2"/>
						
							<rect x="341" y="758.9" transform="matrix(0.9832 -0.1825 0.1825 0.9832 -132.7335 76.9312)" fill="#999B9C" width="21.2" height="1.2"/>
						
							<rect x="342" y="764.5" transform="matrix(0.9832 -0.1825 0.1825 0.9832 -133.739 77.2167)" fill="#999B9C" width="21.2" height="1.2"/>
						
							<rect x="336.3" y="770.7" transform="matrix(0.9832 -0.1825 0.1825 0.9832 -134.9106 76.8986)" fill="#999B9C" width="28" height="1.2"/>
					</g>
					<g>
						
							<rect x="336.3" y="770.7" transform="matrix(0.9832 -0.1825 0.1825 0.9832 -134.9106 76.8986)" fill="#999B9C" width="28" height="1.2"/>
						
							<rect x="344.1" y="775.7" transform="matrix(0.9832 -0.1825 0.1825 0.9832 -135.7404 77.7808)" fill="#999B9C" width="21.2" height="1.2"/>
						
							<rect x="345.1" y="781.3" transform="matrix(0.9832 -0.1825 0.1825 0.9832 -136.746 78.0663)" fill="#999B9C" width="21.2" height="1.2"/>
						
							<rect x="346.1" y="786.9" transform="matrix(0.9832 -0.1825 0.1825 0.9832 -137.745 78.3471)" fill="#999B9C" width="21.2" height="1.2"/>
						
							<rect x="347.2" y="792.4" transform="matrix(0.9832 -0.1825 0.1825 0.9832 -138.748 78.6308)" fill="#999B9C" width="21.2" height="1.2"/>
						
							<rect x="348.2" y="798" transform="matrix(0.9832 -0.1825 0.1825 0.9832 -139.7502 78.9139)" fill="#999B9C" width="21.2" height="1.2"/>
						
							<rect x="349.3" y="803.6" transform="matrix(0.9832 -0.1825 0.1825 0.9832 -140.752 79.1967)" fill="#999B9C" width="21.2" height="1.2"/>
						
							<rect x="350.3" y="809.2" transform="matrix(0.9832 -0.1825 0.1825 0.9832 -141.7542 79.4799)" fill="#999B9C" width="21.2" height="1.2"/>
						
							<rect x="351.3" y="814.8" transform="matrix(0.9832 -0.1825 0.1825 0.9832 -142.7566 79.7631)" fill="#999B9C" width="21.2" height="1.2"/>
						
							<rect x="345.6" y="821" transform="matrix(0.9832 -0.1825 0.1825 0.9832 -143.929 79.4456)" fill="#999B9C" width="28" height="1.2"/>
					</g>
				</g>
			</g>
			<g>
				<polygon fill="#D1D3D4" points="415.6,307.6 475.1,315.3 406.2,847.6 351.2,805.5 				"/>
				<g>
					<polygon fill="#C9CBCC" points="355.3,773.2 411.5,806.8 411.8,804.2 355.7,770.6 					"/>
					<polygon fill="#C9CBCC" points="361.1,728.6 417.2,762.2 417.6,759.5 361.5,725.9 					"/>
					<polygon fill="#C9CBCC" points="366.9,683.9 423,717.5 423.4,714.9 367.2,681.3 					"/>
					<polygon fill="#C9CBCC" points="372.7,639.3 428.8,672.9 429.1,670.2 373,636.6 					"/>
					<polygon fill="#C9CBCC" points="378.4,594.6 434.6,628.2 434.9,625.6 378.8,592 					"/>
					<polygon fill="#C9CBCC" points="384.2,550 440.3,583.6 440.7,580.9 384.6,547.3 					"/>
					<polygon fill="#C9CBCC" points="390,505.3 446.1,539 446.5,536.3 390.3,502.7 					"/>
					<polygon fill="#C9CBCC" points="395.8,460.7 451.9,494.3 452.2,491.7 396.1,458 					"/>
					<polygon fill="#C9CBCC" points="401.5,416 457.7,449.7 458,447 401.9,413.4 					"/>
					<polygon fill="#C9CBCC" points="407.3,371.4 463.4,405 463.8,402.4 407.7,368.7 					"/>
					<polygon fill="#C9CBCC" points="413.1,326.7 469.2,360.4 469.6,357.7 413.4,324.1 					"/>
				</g>
				<polygon fill="#B7B9BA" points="406.2,847.6 475.1,315.3 470.5,314.7 402,844.4 				"/>
				<g>
					<path fill="#F75461" d="M424.3,744.6L511.9,320l-48.6-6.3l-53.6,414l0,0c-4.3-0.6-8.2,2.5-8.8,6.7l-0.7,5.6
						c-0.7,5.4,3.1,10.3,8.5,11l5.4,0.7C418.9,752.3,423.3,749.2,424.3,744.6z"/>
					<path fill="#F75461" d="M390.5,304.3l-39.4,430.4c-0.4,4.9,3,9.2,7.9,9.8l7,0.9c5.4,0.7,10.3-3.1,11-8.5l0.7-5.6
						c0.6-4.3-2.5-8.2-6.7-8.8l0,0l53.6-414L390.5,304.3z"/>
				</g>
				<path fill="#3E3E40" d="M472.1,314.9l-2.3,18.1c-0.3,2.2,1.3,4.2,3.4,4.4l15.8,2c2.2,0.3,4.2-1.3,4.4-3.4l2.3-18.1l16.2,2.1
					l8.9-68.9c0.7-5.1-2.9-9.7-8-10.4l-34.1-4.4c-43.1-5.6-82.6,24.9-88.2,68l0,0L472.1,314.9z"/>
				<path fill="#2C2C2E" d="M469.7,264.7L469.7,264.7l-6.3,49l-38.9-5l1.3-10.1C428.6,277.1,448.2,262,469.7,264.7z"/>
				
					<ellipse transform="matrix(0.1283 -0.9917 0.9917 0.1283 36.6504 806.6222)" fill="#FFFFFF" cx="477.2" cy="382.5" rx="10.7" ry="10.7"/>
				<path fill="#3E3E40" d="M416.4,386.1l33.1,4.3c4.1,0.5,6.9,4.2,6.4,8.3l-16.3,126.2c-0.5,4.1-4.2,6.9-8.3,6.4l-33.1-4.3
					c-4.1-0.5-6.9-4.2-6.4-8.3l16.3-126.2C408.6,388.4,412.3,385.6,416.4,386.1z"/>
				<path fill="#323233" d="M408.1,392.5l-16.3,126.2c-0.5,4.1,2.3,7.8,6.4,8.3l17.6,2.3L434,388.4l-17.6-2.3
					C412.3,385.6,408.6,388.4,408.1,392.5z"/>
			</g>
			<g>
				<path fill="#27AAE1" d="M363.2,670.6L363.2,670.6c-4.1,0-7.4-3.3-7.4-7.4V281.8h14.9v381.4C370.6,667.3,367.3,670.6,363.2,670.6
					z"/>
				<polygon fill="#BCBEC0" points="367.6,173.8 358.7,173.8 355.7,281.8 370.6,281.8 				"/>
				<path fill="#1690C4" d="M370.6,663.2V281.8h-7.4v388.9C367.3,670.6,370.6,667.3,370.6,663.2z"/>
				<path fill="#58595B" d="M358.7,173.8c0,0-5.9-23.7,4.5-46.3v46.3H358.7z"/>
				<path fill="#4F5052" d="M367.6,173.8c0,0,5.9-23.7-4.5-46.3v46.3H367.6z"/>
			</g>
			<g>
				<g>
					<path fill="#4FAD90" d="M288.1,720.5L288.1,720.5c-6.9,0-12.6-5.5-12.8-12.5l-11.1-360.9H312l-11.1,360.9
						C300.7,715,295,720.5,288.1,720.5z"/>
					<rect x="264.2" y="259.5" fill="#D1D3D4" width="47.9" height="87.7"/>
					<rect x="288.1" y="259.5" fill="#DDDFE0" width="23.9" height="87.7"/>
					<path fill="#55BC9C" d="M300.9,708.1L312,347.2h-23.9v373.3C295,720.5,300.7,715,300.9,708.1z"/>
				</g>
				<polygon fill="#343436" points="335.1,137.3 241.1,137.3 264.2,259.5 312,259.5 				"/>
				<polygon fill="#3E3E40" points="335.1,137.3 288.1,137.3 288.1,259.5 312,259.5 				"/>
			</g>
			<g>
				<g>
					
						<rect x="234.5" y="306.5" transform="matrix(0.9937 -0.1117 0.1117 0.9937 -55.1993 30.0995)" fill="#EBA032" width="12.8" height="402"/>
					
						<rect x="247.2" y="305.1" transform="matrix(0.9937 -0.1117 0.1117 0.9937 -54.9568 31.5053)" fill="#FBB040" width="12.8" height="402"/>
					
						<rect x="259.9" y="303.6" transform="matrix(0.9937 -0.1117 0.1117 0.9937 -54.7181 32.9133)" fill="#EBA032" width="12.8" height="402"/>
				</g>
				<polygon fill="#FFD297" points="226.3,262.9 212.1,308.5 250.2,304.2 				"/>
				<path fill="#58595B" d="M226.3,262.9l-3.4,10.8l0,0c3,0.9,6.3,0.6,9.1-1l0,0L226.3,262.9z"/>
				
					<rect x="259" y="705.7" transform="matrix(0.9937 -0.1117 0.1117 0.9937 -79.1595 35.6096)" fill="#D1D3D4" width="38.3" height="36.7"/>
				<path fill="#FF88D5" d="M283.4,771L283.4,771c-10.5,1.2-20-6.4-21.2-16.9l-1.1-9.8l38-4.3l1.1,9.8
					C301.5,760.4,293.9,769.8,283.4,771z"/>
				
					<rect x="260.5" y="733.8" transform="matrix(0.9937 -0.1117 0.1117 0.9937 -80.7143 35.8733)" fill="#939598" width="38.3" height="8.5"/>
				
					<rect x="258.8" y="717.9" transform="matrix(0.9937 -0.1117 0.1117 0.9937 -78.952 35.5745)" fill="#939598" width="38.3" height="8.5"/>
				
					<rect x="257" y="702" transform="matrix(0.9937 -0.1117 0.1117 0.9937 -77.19 35.2758)" fill="#939598" width="38.3" height="8.5"/>
				<path fill="#E876C0" d="M283.4,771L283.4,771l-3.2-28.8l19-2.1l1.1,9.8C301.5,760.4,293.9,769.8,283.4,771z"/>
			</g>
			<g>
				<g>
					<g>
						<polygon fill="#D1D3D4" points="330.6,225 330.6,346.8 311.8,346.8 295.5,274.7 						"/>
						<polygon fill="#BCBEC0" points="330.6,225 330.6,346.8 349.5,346.8 365.8,274.7 						"/>
					</g>
					<path fill="#6D6E71" d="M339,288.8c0-4.6-3.7-8.3-8.3-8.3c-4.6,0-8.3,3.7-8.3,8.3c0,4,2.8,7.3,6.4,8.1v39.7h3.8v-39.7
						C336.2,296.1,339,292.8,339,288.8z"/>
				</g>
				<path fill="#6D6E71" d="M330.6,780.6L330.6,780.6c-8.3,0-15.2-6.5-15.7-14.8l-10.2-174.3c-3.5-52.1-5.2-51.5-5.2-103.8v-28h62
					v28c0,52.2-1.7,51.7-5.2,103.8l-10.2,174.3C345.8,774.1,339,780.6,330.6,780.6z"/>
				<path fill="#58595B" d="M346.3,765.8l10.2-174.3c3.5-52.1,5.2-51.5,5.2-103.8v-28h-31v320.8h0
					C339,780.6,345.8,774.1,346.3,765.8z"/>
				<rect x="302.5" y="450.5" fill="#939598" width="56.4" height="9.7"/>
				<path fill="#6D6E71" d="M358,451h-54.7c-2,0-3.7-1.6-3.7-3.7V333.8c0-2,1.6-3.7,3.7-3.7H358c2,0,3.7,1.6,3.7,3.7v113.5
					C361.7,449.4,360,451,358,451z"/>
				<path fill="#58595B" d="M358,451h-27.3V330.2H358c2,0,3.7,1.6,3.7,3.7v113.5C361.7,449.4,360,451,358,451z"/>
				<rect x="299.6" y="460.2" fill="#FBB040" width="62" height="8.3"/>
				<rect x="299.6" y="342.6" fill="#FBB040" width="62" height="8.3"/>
			</g>
			<g>
				<path fill="#4BA5CC" d="M474.5,525.8H195.2c-12,0-21.7-9.7-21.7-21.7l0,0c0-12,9.7-21.7,21.7-21.7h279.2
					c12,0,21.7,9.7,21.7,21.7l0,0C496.1,516.1,486.4,525.8,474.5,525.8z"/>
				<polygon fill="#6ED3FF" points="442.9,845 226.8,845 190.5,525.8 479.2,525.8 				"/>
				<path fill="#4BA5CC" d="M453.3,867.3H216.4c-6.1,0-11.1-5-11.1-11.1l0,0c0-6.1,5-11.1,11.1-11.1h236.9c6.1,0,11.1,5,11.1,11.1
					l0,0C464.4,862.3,459.4,867.3,453.3,867.3z"/>
				<path fill="#4393B5" d="M474.5,525.8c12,0,21.7-9.7,21.7-21.7l0,0c0-12-9.7-21.7-21.7-21.7H334.8v43.4H474.5z"/>
				<polygon fill="#63C3ED" points="334.8,845 442.9,845 479.2,525.8 474.5,525.8 334.8,525.8 				"/>
				<path fill="#4393B5" d="M464.4,856.2c0-6.1-5-11.1-11.1-11.1h-10.4h-108v22.2h118.5C459.4,867.3,464.4,862.3,464.4,856.2z"/>
			</g>
			<ellipse fill="#A9E9FF" cx="332.9" cy="674.8" rx="105.4" ry="56.2"/>
		</g>
		<g>
			<g>
				<rect x="693.1" y="356.5" fill="#EBA032" width="13.9" height="439.1"/>
				<rect x="707" y="356.5" fill="#FBB040" width="13.9" height="439.1"/>
				<rect x="720.9" y="356.5" fill="#EBA032" width="13.9" height="439.1"/>
			</g>
			<polygon fill="#FFD297" points="714,308.7 693.1,356.5 734.9,356.5 			"/>
			<path fill="#58595B" d="M714,308.7l-5,11.4l0,0c3.2,1.4,6.8,1.4,10,0l0,0L714,308.7z"/>
			<rect x="693.1" y="795.6" fill="#D1D3D4" width="41.8" height="40.1"/>
			<path fill="#FF88D5" d="M714,867.3L714,867.3c-11.5,0-20.9-9.4-20.9-20.9v-10.7h41.8v10.7C734.9,857.9,725.5,867.3,714,867.3z"/>
			<rect x="693.1" y="826.4" fill="#939598" width="41.8" height="9.3"/>
			<rect x="693.1" y="808.9" fill="#939598" width="41.8" height="9.3"/>
			<rect x="693.1" y="791.5" fill="#939598" width="41.8" height="9.3"/>
			<path fill="#E876C0" d="M714,867.3L714,867.3v-31.6h20.9v10.7C734.9,857.9,725.5,867.3,714,867.3z"/>
		</g>
		<g>
			<path fill="#27AAE1" d="M771.9,867.3L771.9,867.3c-4.5,0-8.1-3.6-8.1-8.1V442.5H780v416.6C780,863.7,776.4,867.3,771.9,867.3z"/>
			<polygon fill="#BCBEC0" points="776.8,324.6 767,324.6 763.8,442.5 780,442.5 			"/>
			<path fill="#1690C4" d="M780,859.2V442.5h-8.1v424.8C776.4,867.3,780,863.7,780,859.2z"/>
			<path fill="#58595B" d="M767,324.6c0,0-6.5-25.9,4.9-50.5v50.5H767z"/>
			<path fill="#4F5052" d="M776.8,324.6c0,0,6.5-25.9-4.9-50.5v50.5H776.8z"/>
		</g>
		<g>
			<rect x="541.9" y="112.7" fill="#D1D3D4" width="122.3" height="754.6"/>
			<rect x="603" y="112.7" fill="#DEDFE0" width="61.1" height="754.6"/>
			<g>
				<g>
					<rect x="629.8" y="126.3" fill="#999B9C" width="30.6" height="1.3"/>
					<rect x="637.2" y="132.5" fill="#999B9C" width="23.1" height="1.3"/>
					<rect x="637.2" y="138.7" fill="#999B9C" width="23.1" height="1.3"/>
					<rect x="637.2" y="144.9" fill="#999B9C" width="23.1" height="1.3"/>
					<rect x="637.2" y="151.1" fill="#999B9C" width="23.1" height="1.3"/>
					<rect x="637.2" y="157.3" fill="#999B9C" width="23.1" height="1.3"/>
					<rect x="637.2" y="163.5" fill="#999B9C" width="23.1" height="1.3"/>
					<rect x="637.2" y="169.7" fill="#999B9C" width="23.1" height="1.3"/>
					<rect x="637.2" y="176" fill="#999B9C" width="23.1" height="1.3"/>
					<rect x="629.8" y="182.2" fill="#999B9C" width="30.6" height="1.3"/>
				</g>
				<g>
					<rect x="629.8" y="182.2" fill="#999B9C" width="30.6" height="1.3"/>
					<rect x="637.2" y="188.4" fill="#999B9C" width="23.1" height="1.3"/>
					<rect x="637.2" y="194.6" fill="#999B9C" width="23.1" height="1.3"/>
					<rect x="637.2" y="200.8" fill="#999B9C" width="23.1" height="1.3"/>
					<rect x="637.2" y="207" fill="#999B9C" width="23.1" height="1.3"/>
					<rect x="637.2" y="213.2" fill="#999B9C" width="23.1" height="1.3"/>
					<rect x="637.2" y="219.4" fill="#999B9C" width="23.1" height="1.3"/>
					<rect x="637.2" y="225.6" fill="#999B9C" width="23.1" height="1.3"/>
					<rect x="637.2" y="231.8" fill="#999B9C" width="23.1" height="1.3"/>
					<rect x="629.8" y="238" fill="#999B9C" width="30.6" height="1.3"/>
				</g>
				<g>
					<rect x="629.8" y="238" fill="#999B9C" width="30.6" height="1.3"/>
					<rect x="637.2" y="244.2" fill="#999B9C" width="23.1" height="1.3"/>
					<rect x="637.2" y="250.4" fill="#999B9C" width="23.1" height="1.3"/>
					<rect x="637.2" y="256.6" fill="#999B9C" width="23.1" height="1.3"/>
					<rect x="637.2" y="262.8" fill="#999B9C" width="23.1" height="1.3"/>
					<rect x="637.2" y="269" fill="#999B9C" width="23.1" height="1.3"/>
					<rect x="637.2" y="275.2" fill="#999B9C" width="23.1" height="1.3"/>
					<rect x="637.2" y="281.5" fill="#999B9C" width="23.1" height="1.3"/>
					<rect x="637.2" y="287.7" fill="#999B9C" width="23.1" height="1.3"/>
					<rect x="629.8" y="293.9" fill="#999B9C" width="30.6" height="1.3"/>
				</g>
				<g>
					<rect x="629.8" y="293.9" fill="#999B9C" width="30.6" height="1.3"/>
					<rect x="637.2" y="300.1" fill="#999B9C" width="23.1" height="1.3"/>
					<rect x="637.2" y="306.3" fill="#999B9C" width="23.1" height="1.3"/>
					<rect x="637.2" y="312.5" fill="#999B9C" width="23.1" height="1.3"/>
					<rect x="637.2" y="318.7" fill="#999B9C" width="23.1" height="1.3"/>
					<rect x="637.2" y="324.9" fill="#999B9C" width="23.1" height="1.3"/>
					<rect x="637.2" y="331.1" fill="#999B9C" width="23.1" height="1.3"/>
					<rect x="637.2" y="337.3" fill="#999B9C" width="23.1" height="1.3"/>
					<rect x="637.2" y="343.5" fill="#999B9C" width="23.1" height="1.3"/>
					<rect x="629.8" y="349.7" fill="#999B9C" width="30.6" height="1.3"/>
				</g>
				<g>
					<rect x="629.8" y="349.7" fill="#999B9C" width="30.6" height="1.3"/>
					<rect x="637.2" y="355.9" fill="#999B9C" width="23.1" height="1.3"/>
					<rect x="637.2" y="362.1" fill="#999B9C" width="23.1" height="1.3"/>
					<rect x="637.2" y="368.3" fill="#999B9C" width="23.1" height="1.3"/>
					<rect x="637.2" y="374.5" fill="#999B9C" width="23.1" height="1.3"/>
					<rect x="637.2" y="380.8" fill="#999B9C" width="23.1" height="1.3"/>
					<rect x="637.2" y="387" fill="#999B9C" width="23.1" height="1.3"/>
					<rect x="637.2" y="393.2" fill="#999B9C" width="23.1" height="1.3"/>
					<rect x="637.2" y="399.4" fill="#999B9C" width="23.1" height="1.3"/>
					<rect x="629.8" y="405.6" fill="#999B9C" width="30.6" height="1.3"/>
				</g>
				<g>
					<rect x="629.8" y="405.6" fill="#999B9C" width="30.6" height="1.3"/>
					<rect x="637.2" y="411.8" fill="#999B9C" width="23.1" height="1.3"/>
					<rect x="637.2" y="418" fill="#999B9C" width="23.1" height="1.3"/>
					<rect x="637.2" y="424.2" fill="#999B9C" width="23.1" height="1.3"/>
					<rect x="637.2" y="430.4" fill="#999B9C" width="23.1" height="1.3"/>
					<rect x="637.2" y="436.6" fill="#999B9C" width="23.1" height="1.3"/>
					<rect x="637.2" y="442.8" fill="#999B9C" width="23.1" height="1.3"/>
					<rect x="637.2" y="449" fill="#999B9C" width="23.1" height="1.3"/>
					<rect x="637.2" y="455.2" fill="#999B9C" width="23.1" height="1.3"/>
					<rect x="629.8" y="461.4" fill="#999B9C" width="30.6" height="1.3"/>
				</g>
				<g>
					<rect x="629.8" y="461.4" fill="#999B9C" width="30.6" height="1.3"/>
					<rect x="637.2" y="467.6" fill="#999B9C" width="23.1" height="1.3"/>
					<rect x="637.2" y="473.8" fill="#999B9C" width="23.1" height="1.3"/>
					<rect x="637.2" y="480.1" fill="#999B9C" width="23.1" height="1.3"/>
					<rect x="637.2" y="486.3" fill="#999B9C" width="23.1" height="1.3"/>
					<rect x="637.2" y="492.5" fill="#999B9C" width="23.1" height="1.3"/>
					<rect x="637.2" y="498.7" fill="#999B9C" width="23.1" height="1.3"/>
					<rect x="637.2" y="504.9" fill="#999B9C" width="23.1" height="1.3"/>
					<rect x="637.2" y="511.1" fill="#999B9C" width="23.1" height="1.3"/>
					<rect x="629.8" y="517.3" fill="#999B9C" width="30.6" height="1.3"/>
				</g>
				<g>
					<rect x="629.8" y="517.3" fill="#999B9C" width="30.6" height="1.3"/>
					<rect x="637.2" y="523.5" fill="#999B9C" width="23.1" height="1.3"/>
					<rect x="637.2" y="529.7" fill="#999B9C" width="23.1" height="1.3"/>
					<rect x="637.2" y="535.9" fill="#999B9C" width="23.1" height="1.3"/>
					<rect x="637.2" y="542.1" fill="#999B9C" width="23.1" height="1.3"/>
					<rect x="637.2" y="548.3" fill="#999B9C" width="23.1" height="1.3"/>
					<rect x="637.2" y="554.5" fill="#999B9C" width="23.1" height="1.3"/>
					<rect x="637.2" y="560.7" fill="#999B9C" width="23.1" height="1.3"/>
					<rect x="637.2" y="566.9" fill="#999B9C" width="23.1" height="1.3"/>
					<rect x="629.8" y="573.1" fill="#999B9C" width="30.6" height="1.3"/>
				</g>
				<g>
					<rect x="629.8" y="573.1" fill="#999B9C" width="30.6" height="1.3"/>
					<rect x="637.2" y="579.4" fill="#999B9C" width="23.1" height="1.3"/>
					<rect x="637.2" y="585.6" fill="#999B9C" width="23.1" height="1.3"/>
					<rect x="637.2" y="591.8" fill="#999B9C" width="23.1" height="1.3"/>
					<rect x="637.2" y="598" fill="#999B9C" width="23.1" height="1.3"/>
					<rect x="637.2" y="604.2" fill="#999B9C" width="23.1" height="1.3"/>
					<rect x="637.2" y="610.4" fill="#999B9C" width="23.1" height="1.3"/>
					<rect x="637.2" y="616.6" fill="#999B9C" width="23.1" height="1.3"/>
					<rect x="637.2" y="622.8" fill="#999B9C" width="23.1" height="1.3"/>
					<rect x="629.8" y="629" fill="#999B9C" width="30.6" height="1.3"/>
				</g>
				<g>
					<rect x="629.8" y="629" fill="#999B9C" width="30.6" height="1.3"/>
					<rect x="637.2" y="635.2" fill="#999B9C" width="23.1" height="1.3"/>
					<rect x="637.2" y="641.4" fill="#999B9C" width="23.1" height="1.3"/>
					<rect x="637.2" y="647.6" fill="#999B9C" width="23.1" height="1.3"/>
					<rect x="637.2" y="653.8" fill="#999B9C" width="23.1" height="1.3"/>
					<rect x="637.2" y="660" fill="#999B9C" width="23.1" height="1.3"/>
					<rect x="637.2" y="666.2" fill="#999B9C" width="23.1" height="1.3"/>
					<rect x="637.2" y="672.4" fill="#999B9C" width="23.1" height="1.3"/>
					<rect x="637.2" y="678.7" fill="#999B9C" width="23.1" height="1.3"/>
					<rect x="629.8" y="684.9" fill="#999B9C" width="30.6" height="1.3"/>
				</g>
				<g>
					<rect x="629.8" y="684.9" fill="#999B9C" width="30.6" height="1.3"/>
					<rect x="637.2" y="691.1" fill="#999B9C" width="23.1" height="1.3"/>
					<rect x="637.2" y="697.3" fill="#999B9C" width="23.1" height="1.3"/>
					<rect x="637.2" y="703.5" fill="#999B9C" width="23.1" height="1.3"/>
					<rect x="637.2" y="709.7" fill="#999B9C" width="23.1" height="1.3"/>
					<rect x="637.2" y="715.9" fill="#999B9C" width="23.1" height="1.3"/>
					<rect x="637.2" y="722.1" fill="#999B9C" width="23.1" height="1.3"/>
					<rect x="637.2" y="728.3" fill="#999B9C" width="23.1" height="1.3"/>
					<rect x="637.2" y="734.5" fill="#999B9C" width="23.1" height="1.3"/>
					<rect x="629.8" y="740.7" fill="#999B9C" width="30.6" height="1.3"/>
				</g>
				<g>
					<rect x="629.8" y="740.7" fill="#999B9C" width="30.6" height="1.3"/>
					<rect x="637.2" y="746.9" fill="#999B9C" width="23.1" height="1.3"/>
					<rect x="637.2" y="753.1" fill="#999B9C" width="23.1" height="1.3"/>
					<rect x="637.2" y="759.3" fill="#999B9C" width="23.1" height="1.3"/>
					<rect x="637.2" y="765.5" fill="#999B9C" width="23.1" height="1.3"/>
					<rect x="637.2" y="771.7" fill="#999B9C" width="23.1" height="1.3"/>
					<rect x="637.2" y="778" fill="#999B9C" width="23.1" height="1.3"/>
					<rect x="637.2" y="784.2" fill="#999B9C" width="23.1" height="1.3"/>
					<rect x="637.2" y="790.4" fill="#999B9C" width="23.1" height="1.3"/>
					<rect x="629.8" y="796.6" fill="#999B9C" width="30.6" height="1.3"/>
				</g>
				<g>
					<rect x="629.8" y="796.6" fill="#999B9C" width="30.6" height="1.3"/>
					<rect x="637.2" y="802.8" fill="#999B9C" width="23.1" height="1.3"/>
					<rect x="637.2" y="809" fill="#999B9C" width="23.1" height="1.3"/>
					<rect x="637.2" y="815.2" fill="#999B9C" width="23.1" height="1.3"/>
					<rect x="637.2" y="821.4" fill="#999B9C" width="23.1" height="1.3"/>
					<rect x="637.2" y="827.6" fill="#999B9C" width="23.1" height="1.3"/>
					<rect x="637.2" y="833.8" fill="#999B9C" width="23.1" height="1.3"/>
					<rect x="637.2" y="840" fill="#999B9C" width="23.1" height="1.3"/>
					<rect x="637.2" y="846.2" fill="#999B9C" width="23.1" height="1.3"/>
					<rect x="629.8" y="852.4" fill="#999B9C" width="30.6" height="1.3"/>
				</g>
			</g>
		</g>
		<g>
			<g>
				<g>
					<polygon fill="#D1D3D4" points="847.3,260.4 847.3,393.5 826.7,393.5 808.9,314.7 					"/>
					<polygon fill="#BCBEC0" points="847.3,260.4 847.3,393.5 867.9,393.5 885.7,314.7 					"/>
				</g>
				<path fill="#6D6E71" d="M856.4,330.1c0-5-4.1-9.1-9.1-9.1c-5,0-9.1,4.1-9.1,9.1c0,4.3,3,7.9,7,8.9v43.3h4.1V339
					C853.4,338.1,856.4,334.4,856.4,330.1z"/>
			</g>
			<path fill="#6D6E71" d="M847.3,867.3L847.3,867.3c-9.1,0-16.6-7.1-17.1-16.1l-11.1-190.3c-3.8-56.9-5.7-56.3-5.7-113.4v-30.6
				h67.8v30.6c0,57.1-1.9,56.4-5.7,113.4l-11.1,190.3C863.9,860.2,856.4,867.3,847.3,867.3z"/>
			<path fill="#58595B" d="M864.4,851.1l11.1-190.3c3.8-56.9,5.7-56.3,5.7-113.4v-30.6h-33.9v350.4h0
				C856.4,867.3,863.9,860.2,864.4,851.1z"/>
			<rect x="816.5" y="506.8" fill="#939598" width="61.6" height="10.6"/>
			<path fill="#6D6E71" d="M877.2,507.3h-59.7c-2.2,0-4-1.8-4-4V379.3c0-2.2,1.8-4,4-4h59.7c2.2,0,4,1.8,4,4v123.9
				C881.2,505.5,879.4,507.3,877.2,507.3z"/>
			<path fill="#58595B" d="M877.2,507.3h-29.9v-132h29.9c2.2,0,4,1.8,4,4v123.9C881.2,505.5,879.4,507.3,877.2,507.3z"/>
			<rect x="813.4" y="517.3" fill="#FBB040" width="67.8" height="9.1"/>
			<rect x="813.4" y="388.9" fill="#FBB040" width="67.8" height="9.1"/>
		</g>
		<g>
			<polygon fill="#D1D3D4" points="1010.2,785.4 947.9,785.4 947.9,227.3 1010.2,263.4 			"/>
			<g>
				<polygon fill="#C9CBCC" points="1010.2,297.2 947.9,270 947.9,272.8 1010.2,300 				"/>
				<polygon fill="#C9CBCC" points="1010.2,344 947.9,316.9 947.9,319.6 1010.2,346.8 				"/>
				<polygon fill="#C9CBCC" points="1010.2,390.9 947.9,363.7 947.9,366.4 1010.2,393.6 				"/>
				<polygon fill="#C9CBCC" points="1010.2,437.7 947.9,410.5 947.9,413.2 1010.2,440.4 				"/>
				<polygon fill="#C9CBCC" points="1010.2,484.5 947.9,457.3 947.9,460.1 1010.2,487.3 				"/>
				<polygon fill="#C9CBCC" points="1010.2,531.3 947.9,504.1 947.9,506.9 1010.2,534.1 				"/>
				<polygon fill="#C9CBCC" points="1010.2,578.1 947.9,550.9 947.9,553.7 1010.2,580.9 				"/>
				<polygon fill="#C9CBCC" points="1010.2,624.9 947.9,597.7 947.9,600.5 1010.2,627.7 				"/>
				<polygon fill="#C9CBCC" points="1010.2,671.7 947.9,644.5 947.9,647.3 1010.2,674.5 				"/>
				<polygon fill="#C9CBCC" points="1010.2,718.5 947.9,691.3 947.9,694.1 1010.2,721.3 				"/>
				<polygon fill="#C9CBCC" points="1010.2,765.3 947.9,738.1 947.9,740.9 1010.2,768.1 				"/>
			</g>
			<polygon fill="#B7B9BA" points="947.9,227.3 947.9,785.4 952.6,785.4 952.6,230.1 			"/>
			<g>
				<path fill="#F75461" d="M943,336l-33.8,449.4h50.9v-434l0,0c4.5,0,8.1-3.6,8.1-8.1v-5.9c0-5.6-4.6-10.2-10.2-10.2h-5.6
					C947.5,327.2,943.3,331.1,943,336z"/>
				<path fill="#F75461" d="M1036.5,785.4l-16.8-449.1c-0.2-5.1-4.4-9.1-9.4-9.1h-7.3c-5.6,0-10.2,4.6-10.2,10.2v5.9
					c0,4.5,3.6,8.1,8.1,8.1l0,0v434H1036.5z"/>
			</g>
			<path fill="#3E3E40" d="M951,785.4v-19c0-2.3-1.8-4.1-4.1-4.1h-16.6c-2.3,0-4.1,1.8-4.1,4.1v19h-16.9v72.2c0,5.3,4.3,9.7,9.7,9.7
				h35.8c45.2,0,81.8-36.6,81.8-81.8v0H951z"/>
			<path fill="#2C2C2E" d="M960.1,836.8L960.1,836.8v-51.4h40.8V796C1000.9,818.5,982.6,836.8,960.1,836.8z"/>
			<circle fill="#FFFFFF" cx="936.7" cy="716.4" r="11.1"/>
			<path fill="#3E3E40" d="M998.9,704.5h-34.7c-4.3,0-7.7-3.5-7.7-7.7V564.6c0-4.3,3.5-7.7,7.7-7.7h34.7c4.3,0,7.7,3.5,7.7,7.7
				v132.3C1006.6,701.1,1003.2,704.5,998.9,704.5z"/>
			<path fill="#323233" d="M1006.6,696.8V564.6c0-4.3-3.5-7.7-7.7-7.7h-18.4v147.7h18.4C1003.2,704.5,1006.6,701.1,1006.6,696.8z"/>
		</g>
		<g>
			<g>
				<path fill="#4FAD90" d="M1104.7,867.3L1104.7,867.3c-7.6,0-13.8-6-14-13.6l-12.1-394.2h52.3l-12.1,394.2
					C1118.5,861.3,1112.3,867.3,1104.7,867.3z"/>
				<rect x="1078.5" y="363.7" fill="#D1D3D4" width="52.3" height="95.8"/>
				<rect x="1104.7" y="363.7" fill="#DDDFE0" width="26.1" height="95.8"/>
				<path fill="#55BC9C" d="M1118.7,853.7l12.1-394.2h-26.1v407.8C1112.3,867.3,1118.5,861.3,1118.7,853.7z"/>
			</g>
			<polygon fill="#343436" points="1156.1,230.2 1053.3,230.2 1078.5,363.7 1130.8,363.7 			"/>
			<polygon fill="#3E3E40" points="1156.1,230.2 1104.7,230.2 1104.7,363.7 1130.8,363.7 			"/>
		</g>
		<g>
			<path fill="#ACAEB0" d="M1226.9,273.6c-30.6,0-55.5,24.8-55.5,55.5v174c5.8,0,10.6-4.1,11.8-9.5h1.7c3,0,5.4-2.4,5.4-5.4V464
				c0-3-2.4-5.4-5.4-5.4h-1.4V339.1c0-26.5,18.6-48.7,43.5-54.2v-11.3H1226.9z"/>
			<g>
				<polygon fill="#BCBEC0" points="1233.8,842.4 1220.4,842.4 1203.1,778.3 1251.1,778.3 				"/>
				<polygon fill="#3E3E40" points="1220.4,842.4 1233.8,842.4 1227.1,867.3 				"/>
				<polygon fill="#ACAEB0" points="1251.1,778.3 1227.1,778.3 1227.1,842.4 1233.8,842.4 				"/>
			</g>
			<path fill="#BCBEC0" d="M1228.1,231.6L1228.1,231.6c-8.8,0-15.9,7.1-15.9,15.9v33.5h31.8v-33.5
				C1244,238.7,1236.9,231.6,1228.1,231.6z"/>
			<path fill="#ACAEB0" d="M1244,247.5c0-8.8-7.1-15.9-15.9-15.9h0c-0.3,0-0.6,0-1,0v49.3h16.9V247.5z"/>
			<g>
				<path fill="#2A2A5B" d="M1251.1,778.3l-48.1,0l-5.8-487.8c-0.1-9.3,5.9-16.9,13.4-16.9l32.9,0c7.5,0,13.5,7.6,13.4,16.9
					L1251.1,778.3z"/>
				<path fill="#31316B" d="M1197.2,290.5l5.8,487.8h24V273.6l-16.4,0C1203.1,273.6,1197.1,281.2,1197.2,290.5z"/>
				<polygon fill="#FBB040" points="1254.1,534.2 1200.1,534.2 1200,523.7 1254.2,523.7 				"/>
			</g>
		</g>
	</g>
</g>
</svg>
