<svg xmlns="http://www.w3.org/2000/svg" xmlns:xlink="http://www.w3.org/1999/xlink" version="1.1" x="0px" y="0px" viewBox="0 0 49 61.25" enable-background="new 0 0 49 49" xml:space="preserve"><g><path fill="#000000" d="M43.5,0.5h-38c-2.8,0-5,2.2-5,5v29.3c0,2.8,2.2,5,5,5h11.6v2.6h-2.7c-2.8,0-5.1,2.3-5.1,5.1   c0,0.6,0.4,1,1,1h28.5c0.6,0,1-0.4,1-1c0-2.8-2.3-5.1-5.1-5.1h-2.7v-2.6h11.6c2.8,0,5-2.2,5-5V5.5C48.5,2.7,46.3,0.5,43.5,0.5z    M34.6,44.4c1.4,0,2.6,0.9,3,2.1H11.4c0.4-1.2,1.6-2.1,3-2.1H34.6z M19.1,42.4v-2.6h10.9v2.6H19.1z M46.5,34.8c0,1.7-1.3,3-3,3h-38   c-1.7,0-3-1.3-3-3v-1.9h44V34.8z M46.5,30.9h-44V5.5c0-1.7,1.3-3,3-3h38c1.7,0,3,1.3,3,3V30.9z"/><path fill="#000000" d="M41.1,23.5h-3.3V11.2c0-0.6-0.4-1-1-1h-3.7c-0.6,0-1,0.4-1,1v12.3h-1.3v-8.4c0-0.6-0.4-1-1-1h-3.7   c-0.6,0-1,0.4-1,1v8.4h-1.3V11.2c0-0.6-0.4-1-1-1h-3.7c-0.6,0-1,0.4-1,1v12.3h-1.3v-8.4c0-0.6-0.4-1-1-1h-3.7c-0.6,0-1,0.4-1,1v8.4   H7.9c-0.6,0-1,0.4-1,1s0.4,1,1,1h33.1c0.6,0,1-0.4,1-1S41.6,23.5,41.1,23.5z M14.9,23.5h-1.7v-7.4h1.7V23.5z M21.9,23.5h-1.7V12.2   h1.7V23.5z M28.8,23.5h-1.7v-7.4h1.7V23.5z M35.8,23.5h-1.7V12.2h1.7V23.5z"/><circle fill="#000000" cx="24.5" cy="35.3" r="1"/></g><text x="0" y="64" fill="#000000" font-size="5px" font-weight="bold" font-family="'Helvetica Neue', Helvetica, Arial-Unicode, Arial, Sans-serif">Created by Creative Stall</text><text x="0" y="69" fill="#000000" font-size="5px" font-weight="bold" font-family="'Helvetica Neue', Helvetica, Arial-Unicode, Arial, Sans-serif">from the Noun Project</text></svg>